<mxfile host="app.diagrams.net" modified="2023-08-07T13:18:13.042Z" agent="Mozilla/5.0 (Windows NT 10.0; Win64; x64) AppleWebKit/537.36 (KHTML, like Gecko) Chrome/115.0.0.0 Safari/537.36 OPR/101.0.0.0" version="21.6.6" etag="KPqfLRHmqhSRrPeYpqYJ" type="github">
  <diagram name="PÃ¡gina-1" id="OIdOnUpMiWHrQeLPzG6N">
    <mxGraphModel>
      <root>
        <mxCell id="0" />
        <mxCell id="1" parent="0" />
      </root>
    </mxGraphModel>
  </diagram>
</mxfile>
